# xmcd
#
# Track frame offsets:
#	150
#	14583
#	27662
#	41353
#	54427
#	66523
#	78082
#	91491
#	110166
#	125358
#	137366
#	148648
#
# Disc length: 2197 seconds
#
# Revision: 0
# Processed by: cddbd v1.5.2PL0 Copyright (c) Steve Scherf et al.
# Submitted via: EasyCDDAExtractor 16.0.6.1
#
DISCID=a508930c
DTITLE=Διονυσίου Στράτος - Στράτος Διονυσίου-περ.out
DYEAR=1900
DGENRE=Λαϊκή
TTITLE0=Υποκρίνεσαι [Τ. Σούκα-Μ. Αλατζά]
TTITLE1=Τα μάζεψα τα πράγματα [Θ. Πολυκανδριώτη-Γ. Πάριου]
TTITLE2=Και λέγε λέγε [Θ. Πολυκανδριώτη-Γ. Πάριου]
TTITLE3=Ζητώ ακρόαση Θεού [Χρ. Νικολόπουλου-Λ. Παπαδόπουλου]
TTITLE4=Και του λιμανιού και του σαλονιού [Τ. Μουσαφίρη]
TTITLE5=Λέγε με παλιόπαιδο [Τ. Μουσαφίρη]
TTITLE6=Μάς υποχρέωσες [Αλ. κ Ειρ. Χρυσοβέργη-Σπ. Γιατρά]
TTITLE7=Και τότε μόνος [Τ. Μουσαφίρη]
TTITLE8=Αλήτισσα [Τ. Μουσαφίρη]
TTITLE9=Δεν τελειώνει [Τ. Σούκα-Α. Αξιώτη]
TTITLE10=Και πάλι μάγκας θά 'σαι [Μπ. Μπακάλη-Σωτ. Τσενέ]
TTITLE11=Καλύτερα μαζί σου και τρελλός[Αλ. κ Ειρ.Χρυσοβέργη-Σπ.Γιατρά]
EXTD=
EXTT0=
EXTT1=
EXTT2=
EXTT3=
EXTT4=
EXTT5=
EXTT6=
EXTT7=
EXTT8=
EXTT9=
EXTT10=
EXTT11=
PLAYORDER=
